<?xml version="1.0" encoding="utf-8"?>
<!-- Generator: Adobe Illustrator 24.3.0, SVG Export Plug-In . SVG Version: 6.00 Build 0)  -->
<svg version="1.1" id="Layer_1" xmlns="http://www.w3.org/2000/svg" xmlns:xlink="http://www.w3.org/1999/xlink" x="0px" y="0px"
	 viewBox="0 0 1280 720" style="enable-background:new 0 0 1280 720;" xml:space="preserve">
<style type="text/css">
	.st0{fill:url(#SVGID_1_);}
	.st1{fill:#FFFFFF;}
	.st2{fill:#E8E8E8;}
	.st3{fill:url(#SVGID_2_);}
	.st4{fill:url(#SVGID_3_);}
	.st5{fill:#FAFCFE;}
	.st6{fill:#587DBD;}
	.st7{fill:#FEFEFE;}
	.st8{fill:url(#SVGID_4_);}
	.st9{fill:#FCF347;}
</style>
<g>
	<linearGradient id="SVGID_1_" gradientUnits="userSpaceOnUse" x1="636.2102" y1="318.0892" x2="636.2102" y2="1166.1375">
		<stop  offset="3.112742e-02" style="stop-color:#1925AB"/>
		<stop  offset="0.7176" style="stop-color:#6B35CD;stop-opacity:0"/>
	</linearGradient>
	<rect x="-4.7" y="-2.5" class="st0" width="1281.8" height="721.8"/>
	<polygon class="st1" points="148.7,68.9 156.4,83 170.5,90.7 156.4,98.4 148.7,112.5 141,98.4 126.9,90.7 141,83 	"/>
	<polygon class="st1" points="151.3,275.3 156.5,284.8 166,290 156.5,295.2 151.3,304.8 146.1,295.2 136.5,290 146.1,284.8 	"/>
	<polygon class="st1" points="913.1,137.1 919,148 929.9,154 919,160 913.1,170.9 907.1,160 896.2,154 907.1,148 	"/>
	<polygon class="st1" points="1073.2,281.3 1084.8,302.5 1106,314.1 1084.8,325.7 1073.2,347 1061.6,325.7 1040.3,314.1 
		1061.6,302.5 	"/>
	<polygon class="st1" points="100.8,110.6 105.5,119.2 114.1,123.9 105.5,128.6 100.8,137.2 96.1,128.6 87.5,123.9 96.1,119.2 	"/>
	<g>
		<g>
			
				<image style="overflow:visible;" width="146" height="147" xlink:href="A2E9A1AF.png"  transform="matrix(1 0 0 1 1060.7834 31)">
			</image>
		</g>
		<path class="st2" d="M1147.8,71.8c-16.6-1.2-26,11.2-26.3,22.4c-0.3,12.7,9.3,23.3,22.5,23.9c7.1,0.3,13.1-2.3,17.9-7.6
			c4.7-5.2,6.6-11.3,5.8-18.9c5.8,12.4,3.9,31.6-11.2,43.3c-14.7,11.3-35.3,10-48.3-2.8c-13.1-12.9-14.7-33.3-4-48
			C1115.5,68.5,1135,66,1147.8,71.8z"/>
	</g>
</g>
<image style="overflow:visible;" width="240" height="160" xlink:href="A2E9A1AD.jpg"  transform="matrix(1 0 0 1 -353.4513 85.7969)">
</image>
<linearGradient id="SVGID_2_" gradientUnits="userSpaceOnUse" x1="2051.3694" y1="-390.2357" x2="2051.3694" y2="457.8126">
	<stop  offset="0" style="stop-color:#E39DAD"/>
	<stop  offset="0.7966" style="stop-color:#4151E0;stop-opacity:0"/>
</linearGradient>
<rect x="1410.5" y="-710.8" class="st3" width="1281.8" height="721.8"/>
<linearGradient id="SVGID_3_" gradientUnits="userSpaceOnUse" x1="3443.675" y1="-448.0191" x2="3443.675" y2="400.0292">
	<stop  offset="3.112701e-02" style="stop-color:#F5EDAB"/>
	<stop  offset="0.7176" style="stop-color:#21B5E9;stop-opacity:0"/>
</linearGradient>
<rect x="2802.8" y="-768.6" class="st4" width="1281.8" height="721.8"/>
<g>
	<path class="st1" d="M761,501c2.8,0,5.3,0,8,0c-0.8,6-3.7,10.3-9.2,12.6c-4.4,1.8-9.1,1.9-13.7,1.7c-1.1-0.1-2.2-0.2-3.3-0.3
		c-9.2-1.5-14.2-6.4-15.2-15.7c-0.5-4.4-0.4-9,0.3-13.3c1.5-8.8,6.6-13.2,15.4-14.4c4.2-0.6,8.3-0.6,12.4,0.4
		c7.3,1.8,11.9,6.3,12.9,13.9c0.5,3.4,0.4,6.9,0.6,10.6c-11.5,0-22.6,0-33.7,0c-0.7,6,2.6,10.7,8.3,11.4c3.2,0.4,6.5,0.4,9.6,0
		C757.4,507.5,760.3,505.4,761,501z M735.4,489.6c8.5,0,16.8,0,25.1,0c0.6-5.8-2.7-10.3-8.2-11c-2.7-0.3-5.5-0.3-8.1,0
		C738.5,479.4,735.2,483.6,735.4,489.6z"/>
	<path class="st1" d="M695,514.3c0-2.1,0-4,0-5.9c-0.3,0-0.3,0-0.4,0c-6.1,8-14.2,8.2-22.9,6c-5.1-1.3-8-5.5-8.3-10.9
		c-0.4-6.1,1.7-10.3,6.8-12.5c2.3-1,5-1.7,7.5-1.8c4.9-0.2,9.9,0.1,14.9,0.2c0.7,0,1.4,0,2,0c1.6-5.6-1-10-6.7-10.7
		c-2.9-0.3-5.8-0.2-8.7,0c-3.2,0.3-5.2,2.4-6.2,5.4c-0.2,0.7-0.4,1.4-0.6,2.2c-2.6,0-5.1,0-7.6,0c-0.2-6.3,3.9-12.2,10-14
		c6-1.7,12.2-1.7,18.2,0.1c6,1.8,9.5,5.8,9.8,12.1c0.2,4,0.1,7.9,0.2,11.9c0,5.4,0,10.8,0,16.2c0,1.1-0.2,1.7-1.5,1.7
		C699.5,514.2,697.4,514.3,695,514.3z M694.7,495.6c-5.4,0-10.6-0.1-15.9,0c-1.2,0-2.4,0.4-3.6,0.8c-2.9,1-3.9,2.8-3.7,6.1
		c0.2,2.9,1.3,4.7,4.2,5.1c3.3,0.5,6.7,0.7,10,0.4C692.8,507.3,695.9,502.9,694.7,495.6z"/>
	<path class="st1" d="M505.7,514.1c-2.8,0-5.3,0-8.1,0c0-2,0-3.9,0-5.8c-2.3,3.1-5.2,5.1-8.7,6.1c-4.8,1.4-9.7,1.5-14.5-0.1
		c-5.2-1.7-7.9-5.6-8.3-11.4c-0.3-5.7,2-9.8,6.8-12.1c3.2-1.6,6.7-2,10.1-1.9c4.2,0,8.4,0.2,12.7,0.4c0.5,0,1.1,0,1.6,0
		c1.5-6-1-10-6.9-10.7c-2.8-0.3-5.7-0.2-8.5,0.1c-3.3,0.3-5.3,2.5-6.2,5.6c-0.2,0.7-0.3,1.3-0.5,2c-2.6,0-5.1,0-7.6,0
		c-0.1-6.5,4-12.2,10.1-14c6-1.7,12.2-1.7,18.2,0.1c6,1.7,9.6,5.8,9.8,12.1C505.9,494.3,505.7,504.1,505.7,514.1z M497.3,495.6
		c-5.2,0-10.5,0-15.7,0c-1.2,0-2.4,0.4-3.6,0.8c-2.9,1-4,2.7-3.8,5.8c0.1,3.1,1.3,5,4.3,5.4c3.6,0.4,7.3,0.7,10.9,0.2
		C495.8,506.9,498.6,502.3,497.3,495.6z"/>
	<path class="st1" d="M612.1,514.2c-2.6,0-5.1,0-7.9,0c0-2,0-3.9,0-5.8c-0.3,0-0.5,0-0.5,0c-5.5,6.9-16.9,9.3-24.8,5.1
		c-4.6-2.4-6.3-6.5-6.3-11.4c0-4.9,1.8-8.8,6.3-10.9c2.5-1.1,5.3-2,8-2.1c4.9-0.3,9.9,0.1,14.9,0.1c0.7,0,1.4,0.1,2,0.1
		c1.7-5.8-0.9-10.1-6.6-10.7c-2.9-0.3-5.8-0.2-8.7,0c-3.1,0.3-5.1,2.2-6,5.1c-0.3,0.8-0.5,1.7-0.7,2.6c-2.5,0-5.1,0-7.6,0
		c-0.3-6.2,3.8-12.1,9.8-13.9c6.3-1.9,12.8-1.8,19.1,0.2c5.7,1.8,9,5.9,9.2,11.8c0.3,9.7,0.1,19.5,0.1,29.2
		C612.3,513.8,612.2,513.9,612.1,514.2z M604.1,495.6c-5.5,0-10.8,0-16.1,0c-1.1,0-2.3,0.4-3.4,0.8c-2.7,1-3.9,2.7-3.8,5.7
		c0.1,3.2,1.3,4.8,4.2,5.5c4.4,1,8.9,1,13.2-0.4c3.4-1.1,5.4-3.4,5.8-7C604.2,498.9,604.1,497.4,604.1,495.6z"/>
	<path class="st1" d="M813.8,486.3c-2.7,0-5.3,0-7.9,0c-1.7-5.9-3.9-7.8-10.1-8c-2.9-0.1-5.8,0.3-8.6,0.9c-2.6,0.6-3.5,2.2-3.5,4.6
		c0,2.1,0.9,3.4,3.4,4c4.2,0.9,8.5,1.5,12.8,2.3c2.2,0.4,4.4,0.8,6.5,1.5c4,1.2,6.7,3.8,7.3,8.1c0.6,4.5-0.1,8.9-4.1,11.6
		c-2.2,1.5-4.9,2.7-7.6,3.3c-5.6,1.3-11.4,1.2-17-0.4c-6.5-1.8-10.6-6.6-11.1-12.9c0-0.4,0-0.8,0-1.4c2.6,0,5.1,0,7.7,0
		c0.1,0.4,0.2,0.8,0.3,1.3c0.5,3.4,2.7,5.5,5.8,6.3c4.8,1.3,9.6,1.2,14.3-0.4c1.3-0.4,2.7-1.7,3.4-2.9c1.4-2.9,0.2-5.4-3.1-6.2
		c-4.2-1-8.5-1.5-12.8-2.3c-2.2-0.4-4.4-0.8-6.5-1.5c-4.2-1.4-6.7-4.3-7.2-8.8c-0.5-4.8,1.1-8.7,5.4-11.2c1.3-0.8,2.7-1.4,4.1-1.8
		c5.8-1.7,11.7-1.7,17.5-0.1C809.5,474.1,813.4,479.2,813.8,486.3z"/>
	<path class="st1" d="M618,500c2.6,0,5.1,0,7.6,0c0.1,0.2,0.3,0.4,0.3,0.7c0.5,5,4.5,7,8.2,7.5c4,0.4,8,0.5,11.8-0.8
		c1.4-0.5,2.9-1.6,3.6-2.9c1.5-3,0.3-5.5-3.2-6.3c-4.2-1-8.6-1.5-12.8-2.3c-2.3-0.4-4.7-0.9-6.8-1.7c-8.9-3.3-8.4-15.1-2.5-19.1
		c1-0.7,2.1-1.4,3.2-1.8c6.9-2.6,13.9-2.7,20.8-0.4c5.9,2,9.8,7.8,9.5,13.6c-0.4,0-0.8,0.1-1.3,0.1c-2.2,0-4.3,0-6.4,0
		c-2-6.2-4.2-8-10.6-8.1c-2.5,0-5,0.2-7.4,0.7c-3.1,0.6-4.3,2.2-4.2,4.8c0,2.3,1.2,3.7,4.3,4.3c3.9,0.8,8,1.3,11.9,2
		c2.2,0.4,4.4,0.8,6.5,1.5c4,1.2,6.7,3.8,7.3,8.1c0.6,4.7-0.3,8.9-4.3,12c-3.1,2.4-6.8,3.2-10.6,3.5c-4.6,0.4-9.2,0.3-13.7-0.9
		C622.2,512.4,617.7,506.7,618,500z"/>
	<path class="st1" d="M508.4,472.4c2.8,0,5.4-0.1,7.9,0.1c0.5,0,1.2,0.9,1.5,1.6c4,8.7,7.9,17.5,11.9,26.3c0.3,0.6,0.6,1.2,1,2.2
		c0.4-0.9,0.7-1.5,1-2.1c3.8-8.7,7.6-17.4,11.2-26.1c0.6-1.5,1.4-1.9,2.9-1.8c2.1,0.1,4.2,0,6.6,0c-0.3,0.7-0.5,1.3-0.7,1.8
		c-6,12.9-12,25.7-18,38.6c-0.5,1.1-1.1,1.8-2.4,1.5c-1.3-0.2-2.8,0.6-3.7-1.2c-6.2-13.1-12.5-26.2-18.8-39.2
		C508.7,473.4,508.6,473,508.4,472.4z"/>
	<path class="st1" d="M711.3,457c2.7,0,5.2,0,7.9,0c0,19.1,0,38,0,57.1c-2.6,0-5.2,0-7.9,0C711.3,495.1,711.3,476.1,711.3,457z"/>
	<path class="st1" d="M557.7,472.5c2.8,0,5.3,0,8,0c0,13.8,0,27.6,0,41.7c-2.4,0-4.9,0-7.3-0.1c-0.2,0-0.6-0.9-0.6-1.5
		c-0.1-2.7,0-5.3,0-8c0-10,0-20,0-29.9C557.7,474,557.7,473.3,557.7,472.5z"/>
	<path class="st1" d="M566.1,457.4c0,2.8,0,5.5,0,8.4c-2.8,0-5.6,0-8.5,0c0-2.8,0-5.5,0-8.4C560.4,457.4,563.2,457.4,566.1,457.4z"
		/>
</g>
<g>
	<g>
		<path class="st5" d="M522.3,566.5c0-3.1,0-6.2,0-9.2c0-0.9,0.2-1.2,1.1-1.2c6,0,12,0,18.1,0c0.9,0,1.1,0.3,1.1,1.2
			c0,6.2,0,12.5,0,18.7c0,0.8-0.2,1.2-1,1.1c-1.5-0.1-3.5,0.6-4.4-0.3c-0.7-0.8-0.2-2.7-0.2-4.2c0-3.4,0-6.9,0-10.3
			c0-1-0.2-1.4-1.3-1.3c-2.2,0.1-4.4,0.1-6.7,0c-0.8,0-1.1,0.3-1.1,1.1c0,4.6,0,9.1,0,13.7c0,1-0.1,1.5-1.3,1.4
			c-1.4-0.2-3.3,0.6-4.2-0.3c-0.8-0.8-0.2-2.7-0.2-4.1C522.3,570.7,522.3,568.6,522.3,566.5z"/>
		<path class="st5" d="M671.2,577.1c-3.3,0-6.7,0-10,0c-0.9,0-1.2-0.2-1.2-1.1c0-4.3,0-8.7,0-13c0-0.9,0.3-1.2,1.2-1.1
			c1.3,0.1,3-0.6,3.8,0.3c0.8,0.8,0.2,2.4,0.2,3.7c0,2.1,0,4.3,0,6.4c0,0.8,0.2,1,1,1c2.6,0.1,2.6,0.1,2.6-2.5c0-2.5,0-5.1,0-7.6
			c0-0.9,0.1-1.3,1.2-1.2c1.2,0.1,2.8-0.5,3.5,0.2c0.8,0.7,0.2,2.3,0.2,3.5c0,2.2,0,4.3,0,6.5c0,0.8,0.1,1.1,1,1.1
			c2.6,0,2.6,0.1,2.6-2.5c0-2.6,0-5.2,0-7.7c0-0.8,0.2-1.1,1.1-1.1c1.3,0.1,3-0.4,3.8,0.2c0.9,0.7,0.3,2.5,0.3,3.7
			c0,3.3,0,6.5,0,9.8c0,1.1-0.2,1.6-1.5,1.5C677.8,577.1,674.5,577.1,671.2,577.1z"/>
		<path class="st5" d="M631.6,561.9c1.8,0,3.6,0.1,5.4,0c1.1-0.1,1.5,0.2,1.4,1.4c-0.1,2.9,0,5.8-0.1,8.7c0,1,0.3,1.5,1.3,1.3
			c0.9-0.1,1.2,0.2,1.1,1.1c-0.1,1.9-0.1,3.9,0,5.8c0,0.8-0.2,1.1-1,1c0,0-0.1,0-0.1,0c-1.1,0-2.4,0.4-3.2-0.1
			c-0.9-0.6-0.3-2-0.3-3.1c0-0.6-0.2-0.9-0.8-0.9c-2.8,0-5.6,0-8.4,0c-0.6,0-0.8,0.2-0.8,0.8c0,0.1,0,0.2,0,0.3
			c-0.1,1,0.4,2.5-0.2,2.8c-1.1,0.5-2.6,0.2-3.9,0.2c-0.4,0-0.5-0.3-0.5-0.6c0-2.2,0-4.4,0-6.7c0-0.6,0.2-0.7,0.7-0.7
			c1.2,0.2,1.7-0.6,2-1.6c0.4-1.3,0.5-2.7,0.5-4.2c0-1.5,0-3.1,0-4.6c0-0.8,0.2-1,1-1C627.7,562,629.6,561.9,631.6,561.9z
			 M633.3,569.5c0-0.2,0-0.5,0-0.7c0-3.1,0-3.1-3.2-3c-0.8,0-1,0.2-1,1c0.1,1.9,0,3.9-0.7,5.7c-0.2,0.6,0.1,0.7,0.6,0.7
			c1.2,0,2.4,0,3.5,0c0.6,0,0.8-0.2,0.8-0.8C633.3,571.5,633.3,570.5,633.3,569.5z"/>
		<path class="st5" d="M702.9,569.5c0-2.2,0-4.3,0-6.5c0-0.8,0.2-1.1,1-1.1c2.9,0.1,5.9,0,8.8,0c0.8,0,1.6,0.2,2.4,0.5
			c1.7,0.6,2.6,1.9,2.5,3.6c-0.1,1.6-0.9,2.5-2.8,3c-0.3,0.1-0.8-0.1-0.8,0.5c0,0.4,0.5,0.3,0.8,0.3c2.4,0.5,3.2,1.4,3.2,3.3
			c0,2.1-1.1,3.4-3.3,3.8c-2.4,0.5-4.9,0.2-7.3,0.2c-1.5,0-3.4,0.7-4.3-0.3c-0.8-0.9-0.2-2.8-0.2-4.2
			C702.8,571.6,702.9,570.6,702.9,569.5z M710.1,570.7c-2.2,0-2.2,0-2.1,2.2c0,0.1,0,0.3,0,0.4c0,0.3,0.2,0.5,0.5,0.5
			c1.1,0,2.2,0.1,3.2-0.1c0.8-0.2,1.2-0.7,1.2-1.6c0-0.8-0.5-1.3-1.3-1.4C711.1,570.6,710.6,570.7,710.1,570.7z M709.9,568.2
			c0.5,0,1.1,0,1.6,0c0.7-0.1,1-0.5,1.1-1.2c0.1-0.6,0-1.2-0.6-1.5c-1.2-0.5-2.4-0.3-3.6-0.2c-0.3,0-0.3,0.3-0.4,0.5
			C707.5,567.6,708,568.3,709.9,568.2z"/>
		<path class="st5" d="M652.4,570.2c-1.4,0-2.9,0.1-4.3,0c-1.1-0.1-1.3,0.4-1.1,1.4c0.3,1.2,1,1.9,2.2,2.1c1.8,0.3,3-0.1,3.5-1.3
			c0.2-0.5,0.5-0.6,1-0.6c1.1,0,2.3,0.1,3.4,0c0.9-0.1,0.9,0.4,0.8,1.1c-0.4,2.3-1.7,3.9-4,4.4c-2.4,0.6-4.7,0.6-7.1,0.1
			c-2.6-0.5-4.2-2.1-4.7-4.6c-0.5-2.4-0.5-4.8,0.3-7.2c0.6-1.7,1.7-2.9,3.4-3.4c2.8-0.8,5.5-0.9,8.3,0c2.6,0.9,3.8,2.7,3.8,5.7
			c0.1,2.4,0.1,2.4-2.3,2.4C654.5,570.2,653.5,570.2,652.4,570.2z M649.7,568.6c0.7,0,1.5,0,2.2,0c0.9,0.1,1-0.4,0.9-1.1
			c-0.2-1.1-0.8-1.9-2-2.1c-1.6-0.3-2.9,0.1-3.5,1.1c-0.9,1.5-0.6,2,1.2,2C648.9,568.6,649.3,568.6,649.7,568.6z"/>
		<path class="st5" d="M695.2,570.2c-1.5,0-3.1,0-4.6,0c-0.8,0-0.9,0.3-0.9,1c0.2,1.2,0.8,2.1,2,2.4c1.7,0.4,3.2,0,3.7-1.2
			c0.3-0.6,0.6-0.8,1.2-0.7c1.1,0,2.3,0,3.4,0c0.6,0,0.8,0.1,0.7,0.8c-0.3,2.5-1.8,4.2-4.3,4.8c-2.4,0.5-4.8,0.5-7.1,0
			c-2.3-0.5-3.7-1.9-4.3-4.2c-0.6-2.4-0.6-4.8,0.1-7.2c0.6-2.1,2.1-3.5,4.2-3.9c2.6-0.6,5.2-0.6,7.8,0.3c2.8,1,4.6,4.9,3.7,7.6
			c-0.2,0.6-0.6,0.4-1,0.4C698.3,570.2,696.7,570.2,695.2,570.2z M692.7,568.6c0.7,0,1.4,0,2,0c0.8,0.1,1.1-0.2,0.9-1
			c-0.2-1-0.7-1.9-1.8-2.1c-1.3-0.2-2.5-0.3-3.5,0.8c-0.5,0.6-0.8,1.3-0.5,2c0.2,0.7,1,0.3,1.6,0.3
			C691.8,568.7,692.3,568.6,692.7,568.6z"/>
		<path class="st5" d="M561.6,569.6c-0.1,0.7-0.1,1.6-0.2,2.4c-0.5,3.3-2.3,5.1-5.6,5.5c-2,0.3-4.1,0.3-6.1-0.2
			c-2.4-0.5-3.9-2-4.5-4.4c-0.6-2.3-0.5-4.7,0.1-7c0.6-2.1,2-3.5,4.2-4c2.2-0.5,4.5-0.5,6.7-0.1c2.9,0.6,4.6,2.4,5.1,5.4
			C561.5,567.9,561.5,568.7,561.6,569.6z M550,569.4c0,0.8,0.1,1.6,0.3,2.4c0.2,0.8,0.7,1.4,1.5,1.7c2.3,0.9,4.3-0.2,4.6-2.7
			c0.1-1,0.1-2.1-0.1-3.1c-0.3-1.5-1.4-2.3-3-2.3c-1.8,0-2.6,0.7-3,2.3C550.1,568.3,550.1,568.8,550,569.4z"/>
		<path class="st5" d="M569,569.6c1.5-1.9,3-3.7,4.3-5.7c1-1.6,2.3-2.2,4.1-2c1.1,0.1,1.4,0.3,1.4,1.4c-0.1,4.2-0.1,8.4,0,12.6
			c0,0.9-0.2,1.3-1.2,1.2c-0.9-0.1-1.9-0.1-2.8,0c-0.7,0-0.9-0.2-0.9-0.9c0-2.2,0-4.5,0-7.1c-2,2.5-3.7,4.6-5.4,6.7
			c-0.9,1.1-3.1,1.8-4.4,1.3c-0.5-0.2-0.4-0.5-0.4-0.9c0-4.5,0-9,0-13.4c0-0.7,0.2-1,0.9-0.9c1,0,2,0.1,3,0c0.9-0.1,1.1,0.3,1.1,1.1
			c0,2.2,0,4.3,0,6.5C568.8,569.5,568.9,569.5,569,569.6z"/>
		<path class="st5" d="M594.5,568c-0.5,0-1,0-1.5,0c-0.6,0.1-1-0.2-1.1-0.8c-0.4-1.5-1.5-1.8-2.8-1.8c-1.3,0-2.3,0.5-2.7,1.9
			c-0.4,1.3-0.3,2.7-0.1,4c0.2,1.6,1.1,2.3,2.7,2.4c1.8,0.1,2.6-0.3,3-2c0.2-0.7,0.5-0.8,1.1-0.8c1,0,2.1,0.1,3.1,0
			c0.9-0.1,1,0.3,0.9,1.1c-0.4,3-2,4.8-4.9,5.4c-2,0.4-4.1,0.4-6.1,0c-2.8-0.5-4.4-2.2-4.9-4.9c-0.4-2-0.4-4,0.1-5.9
			c0.5-2.5,2-4.1,4.5-4.7c2.3-0.5,4.6-0.5,6.9,0c2.6,0.6,4,2.3,4.4,4.9c0.1,1-0.1,1.3-1.1,1.2C595.5,567.9,595,568,594.5,568z"/>
		<path class="st5" d="M615.5,577.1c-1.9,0-3.5,0-5.1,0c-0.6,0-0.9-0.3-1.1-0.7c-0.9-1.6-1.9-3.1-2.7-4.7c-0.4-0.8-1-1-1.8-0.8
			c-0.9,0.2-0.4,0.9-0.4,1.3c-0.1,1.4,0,2.7,0,4.1c0,0.6-0.2,0.9-0.9,0.9c-1.1,0-2.3-0.1-3.4,0c-0.8,0-0.9-0.3-0.9-1
			c0-4.4,0-8.9,0-13.3c0-0.8,0.2-1,1-1c1,0.1,2.1,0.1,3.1,0c0.9-0.1,1,0.3,1,1.1c0,2,0,4,0.3,6.1c1.4-2.1,2.8-4.1,4.2-6.2
			c0.5-0.7,0.9-1.1,1.9-1c1.4,0.1,2.8,0,4.5,0c-1.1,1.6-2.2,3.1-3.2,4.6c-1.6,2.3-1.6,2.3-0.1,4.7
			C612.9,573.1,614.2,575,615.5,577.1z"/>
		<path class="st5" d="M740.8,561.9c2,0,3.6,0,5.2,0c0.6,0,0.9,0.3,1.1,0.8c0.6,1.2,1.3,2.5,2.1,3.9c0.7-1.4,1.4-2.6,2-3.8
			c0.3-0.7,0.7-0.9,1.5-0.9c1.5,0.1,3.1,0,4.9,0c-1.4,2.1-2.6,4.1-4,6c-0.9,1.1-0.8,2,0,3.1c1.4,1.9,2.7,3.9,4.2,6.2
			c-2,0-3.8,0-5.5,0c-0.5,0-0.5-0.4-0.7-0.7c-0.7-1.3-1.5-2.7-2.4-4.2c-0.8,1.5-1.6,2.8-2.3,4.1c-0.3,0.6-0.6,0.9-1.3,0.8
			c-1.5-0.1-3.1,0-4.6,0c-0.2-0.5,0.1-0.7,0.3-1c1.3-2,2.6-4,4-6c0.4-0.6,0.4-1.1,0-1.7C743.8,566.5,742.4,564.3,740.8,561.9z"/>
		<path class="st5" d="M719.9,569.4c0-2.2,0-4.3,0-6.5c0-0.8,0.2-1.1,1-1c0.1,0,0.2,0,0.3,0c1.2,0,2.8-0.4,3.6,0.2
			c0.8,0.6,0.2,2.3,0.3,3.5c0,0.8,0.3,1,1,1c1.1-0.1,2.3,0,3.4,0.2c2,0.4,3,1.3,3.4,3.3c0.3,1.3,0.2,2.5-0.1,3.8
			c-0.6,2-2.1,3.2-4.5,3.2c-2.4,0.1-4.9,0-7.3,0c-0.8,0-1-0.2-1-1C719.9,573.9,719.9,571.7,719.9,569.4z M725,571.6
			c0.1,0.8-0.4,1.9,1.2,1.7c1.6-0.1,2.2-0.5,2.2-1.7c0-1.3-0.6-1.6-2.2-1.7C724.6,569.7,725,570.8,725,571.6z"/>
		<path class="st5" d="M739.5,569.5c0,2.2,0,4.4,0,6.6c0,0.7-0.2,1.1-1,1c-1.3-0.1-3.1,0.5-3.9-0.2c-0.8-0.7-0.2-2.5-0.2-3.8
			c0-3.4,0-6.8,0-10.2c0-0.8,0.2-1.2,1.1-1.1c1.3,0.1,3.1-0.6,3.9,0.3c0.6,0.7,0.2,2.4,0.2,3.7C739.5,567.1,739.5,568.3,739.5,569.5
			z"/>
		<path class="st5" d="M689.3,559.7c-0.5-0.2-1.5,0.4-1.7-0.3c-0.3-0.9-0.1-2,0-2.9c0-0.3,0.4-0.2,0.7-0.3c0.5,0,1,0.1,1.5,0
			c1.4-0.2,1.8,0.3,1.7,1.7C691.3,559.7,691.4,559.7,689.3,559.7z"/>
		<path class="st5" d="M696.1,559.7c-2.1,0-2.1,0-2.1-1.8c0-1.8,0-1.8,2.2-1.7c2,0,1.7-0.3,1.7,1.8C698,560,698.2,559.7,696.1,559.7
			z"/>
	</g>
	<g>
		<path class="st5" d="M620.2,598.7c1.6-3,4-3.7,6.9-3.1c2.1,0.5,3.4,1.8,4,3.8c0.6,2.1,0.5,4.2-0.1,6.3c-0.6,2-1.9,3.3-4,3.8
			c-2.3,0.5-4.6,0.6-6.9,0.1c-2.9-0.6-4.5-2.5-5-5.2c-0.6-3.1-0.5-6.2,0.2-9.3c0.7-3.3,2.8-5.4,6.1-6.2c2.4-0.6,4.8-1,7.1-1.8
			c0.6-0.2,0.7,0,0.8,0.5c0.1,0.2,0.1,0.4,0.2,0.7c0.9,3.1,0.9,3.1-2.4,3.9c-1.2,0.3-2.5,0.5-3.7,0.9
			C621.1,593.7,619.8,595.9,620.2,598.7z M619.9,602.6c0,0.2,0,0.6,0.1,1c0.3,1.8,1.2,2.5,3.2,2.5c1.8,0,2.7-0.7,3-2.5
			c0.1-0.7,0.2-1.4,0.1-2.2c-0.3-2.2-1.2-2.9-3.3-2.8C620.7,598.7,619.9,599.7,619.9,602.6z"/>
		<path class="st5" d="M560.5,603.9c0,1.6,0,3.2,0,4.8c0,0.7-0.2,0.9-0.9,0.9c-1,0-2.1-0.1-3.1,0c-0.8,0.1-1.2-0.2-1.1-1
			c0-0.4,0-0.7,0-1.1c0-0.2,0-0.5-0.2-0.6c-0.4-0.1-0.4,0.2-0.5,0.4c-1.3,3.1-5.9,3.2-7.9,2c-1.7-1-2.2-2.7-2.1-4.5
			c0.1-1.8,1-3,2.7-3.7c2.1-0.7,4.3-0.4,6.5-0.4c0.5,0,1.4,0.6,1.5-0.4c0.2-0.9,0-1.7-0.9-2.2c-1.4-0.7-3.3-0.2-4.2,1.1
			c-0.2,0.3-0.3,0.4-0.6,0.4c-1.3,0-2.6,0-3.9,0c-0.7,0-0.6-0.5-0.5-0.9c0.3-2.1,1.3-3.6,3.3-4.2c2.9-0.9,5.8-0.9,8.7,0
			c2.1,0.7,3.2,2.1,3.3,4.3C560.5,600.5,560.5,602.2,560.5,603.9C560.5,603.9,560.5,603.9,560.5,603.9z M553.5,603.1
			c-0.9-0.1-1.7-0.1-2.5,0.2c-0.6,0.2-1,0.6-1,1.3c0,0.7,0.1,1.3,0.8,1.5c1.2,0.4,2.5,0.4,3.6-0.3c0.8-0.5,1-1.3,0.9-2.1
			c-0.1-0.9-1-0.4-1.4-0.5C553.8,603.1,553.6,603.1,553.5,603.1z"/>
		<path class="st5" d="M607.3,606.5c-1.4,3.2-3.8,3.9-6.8,3.4c-2.3-0.4-3.6-2-3.7-4.5c-0.1-2.3,1.1-3.9,3.4-4.5c2-0.5,4-0.3,5.9-0.2
			c0.5,0,1.3,0.6,1.5-0.3c0.2-0.8,0.2-1.7-0.8-2.3c-1.4-0.8-3.5-0.3-4.4,1c-0.1,0.2-0.2,0.4-0.5,0.4c-1.4,0-2.8,0-4.2,0
			c-0.7,0-0.4-0.6-0.4-0.9c0.3-2.1,1.4-3.6,3.5-4.2c2.7-0.8,5.5-0.8,8.2,0c2.3,0.7,3.6,2.2,3.7,4.7c0.1,3.2,0,6.4,0.1,9.6
			c0,0.7-0.2,0.9-0.9,0.8c-1,0-2-0.1-3,0c-1,0.1-1.4-0.2-1.3-1.2C607.7,607.8,607.8,607.2,607.3,606.5z M605.4,603.1
			c-0.8,0-1.6,0-2.4,0.3c-0.5,0.2-0.8,0.7-0.8,1.3c0,0.6,0.2,1,0.7,1.3c1,0.6,3.3,0.3,4.1-0.5c0.6-0.5,0.8-1.3,0.6-2
			c-0.2-0.7-0.9-0.3-1.4-0.4C606,603.1,605.7,603.1,605.4,603.1z"/>
		<path class="st5" d="M679,602.6c-1.5,0-3.1,0-4.6,0c-0.9,0-1,0.3-0.8,1.1c0.2,1.2,0.8,2.1,2.1,2.3c1.9,0.3,3,0,3.7-1.4
			c0.2-0.4,0.4-0.5,0.8-0.5c1.2,0,2.4,0,3.7,0c0.7,0,0.8,0.3,0.7,0.9c-0.3,2.3-1.7,4-4,4.6c-2.4,0.6-4.8,0.6-7.3,0.1
			c-2.5-0.5-4-2-4.5-4.5c-0.5-2.4-0.5-4.9,0.2-7.2c0.6-1.9,1.9-3.1,3.7-3.6c2.4-0.6,4.7-0.7,7.1-0.1c3.2,0.8,4.7,2.7,4.8,6
			c0,2.4,0,2.4-2.3,2.4C681.2,602.6,680.1,602.6,679,602.6z M676.5,601c0.7,0,1.4,0,2,0c1,0.1,1.1-0.4,0.9-1.1c-0.2-1-0.7-1.9-1.9-2
			c-1.3-0.2-2.7-0.2-3.5,1c-0.4,0.5-0.6,1.2-0.4,1.8c0.3,0.7,1,0.3,1.6,0.3C675.6,601.1,676,601,676.5,601z"/>
		<path class="st5" d="M718,602c0,0.9,0,1.8-0.2,2.7c-0.5,2.7-2.1,4.4-4.8,4.9c-2.2,0.5-4.4,0.5-6.6,0c-3-0.6-4.4-2.3-4.9-5.6
			c-0.3-2-0.2-4,0.4-5.9c0.7-2.1,2.1-3.4,4.2-4c2.2-0.5,4.5-0.6,6.7-0.1c3.1,0.6,4.8,2.6,5.1,6C718.1,600.8,718,601.4,718,602z
			 M713,602C713,602,712.9,602,713,602c-0.1-0.3,0-0.6-0.1-0.9c-0.2-2.3-1.1-3.3-3.2-3.3c-2.1,0-3,1-3.1,3.4c0,0.9,0,1.7,0.1,2.6
			c0.3,1.7,1.2,2.4,3.1,2.3c1.8,0,2.8-0.8,3-2.4C712.9,603.1,712.9,602.6,713,602z"/>
		<path class="st5" d="M720.2,602c0-2.2,0-4.3,0-6.5c0-0.8,0.1-1.2,1.1-1.2c2.8,0.1,5.7,0,8.6,0c1,0,1.9,0.2,2.8,0.5
			c1.6,0.6,2.4,1.9,2.3,3.6c-0.1,1.6-0.9,2.5-2.7,2.9c-0.3,0.1-0.9-0.1-0.9,0.4c0,0.5,0.5,0.4,0.8,0.4c2.2,0.5,3.1,1.4,3.1,3.3
			c0,2-1.1,3.4-3.1,3.8c-2.1,0.5-4.2,0.2-6.4,0.2c-1.5,0-3.1,0-4.6,0c-0.8,0-1.1-0.2-1.1-1.1C720.3,606.3,720.2,604.1,720.2,602z
			 M727.4,603c-2.1-0.1-2.1-0.1-2,2.1c0,0.2,0,0.4,0,0.5c0,0.3,0.2,0.5,0.5,0.5c1.1,0,2.3,0.2,3.4-0.2c0.7-0.2,1.1-0.8,1-1.6
			c-0.1-0.7-0.5-1.3-1.2-1.4C728.5,603,727.9,603,727.4,603z M727.3,600.6C727.3,600.6,727.3,600.6,727.3,600.6c0.5,0,1,0,1.5,0
			c0.6,0,1-0.5,1.1-1c0.2-0.6,0-1.2-0.4-1.6c-0.4-0.3-3.4-0.6-3.8-0.3c-0.1,0.1-0.2,0.2-0.2,0.3c0,0.8-0.2,1.7,0,2.4
			c0.2,0.6,1,0.2,1.6,0.3C727.1,600.6,727.2,600.6,727.3,600.6z"/>
		<path class="st5" d="M562.8,601.9c0-2.2,0-4.3,0-6.5c0-0.8,0.1-1.1,1-1.1c2.9,0.1,5.8,0,8.7,0c1,0,2,0.2,2.9,0.6
			c1.5,0.6,2.3,2,2.1,3.6c-0.1,1.5-0.9,2.3-2.5,2.8c-0.4,0.1-1-0.1-1,0.4c0,0.6,0.6,0.4,1,0.5c2.1,0.5,2.9,1.4,2.9,3.1
			c0,2-0.9,3.4-2.9,3.9c-0.6,0.1-1.2,0.3-1.7,0.3c-3.2,0-6.3,0-9.5,0c-0.8,0-1-0.2-1-1C562.8,606.3,562.8,604.1,562.8,601.9z
			 M569.7,606.2c0.8,0,1.4,0,2.1-0.2c0.6-0.2,0.9-0.6,1-1.1c0.1-0.6,0-1.3-0.6-1.5c-1.3-0.6-2.6-0.2-4-0.3c-0.1,0-0.2,0.2-0.2,0.3
			c0,0.9-0.2,1.8,0.1,2.5C568.3,606.5,569.2,606,569.7,606.2z M569.8,600.7c0.5,0,1.1,0,1.6-0.1c0.6-0.1,0.9-0.6,1-1.1
			c0.1-0.6,0-1.2-0.6-1.5c-1.1-0.5-2.4-0.3-3.6-0.3c-0.2,0-0.3,0.3-0.3,0.5C567.5,600,567.9,600.6,569.8,600.7z"/>
		<path class="st5" d="M589.7,601.8c-1.7,2.1-3.4,4.3-5.1,6.4c-0.9,1.1-3.1,1.8-4.4,1.3c-0.4-0.1-0.4-0.4-0.4-0.7
			c0-4.6,0-9.1,0-13.7c0-0.6,0.3-0.8,0.8-0.8c1.1,0,2.2,0.1,3.3,0c0.8,0,0.9,0.3,0.9,1c0,2.2,0,4.4,0,6.6c0.6,0,0.8-0.5,1-0.7
			c1.3-1.7,2.8-3.4,3.9-5.2c0.9-1.3,1.9-1.8,3.5-1.7c2.1,0.2,1.8-0.3,1.8,1.8c0,4.1,0,8.2,0,12.4c0,0.8-0.2,1.2-1,1.1
			c-1-0.1-2-0.1-3,0c-0.7,0-0.9-0.3-0.9-0.9c0-2.2,0-4.4,0-6.6C589.9,601.9,589.8,601.8,589.7,601.8z"/>
		<path class="st5" d="M643.5,601.8c-1.6,2-3.4,3.9-4.8,6.1c-1.2,1.9-2.9,1.6-4.6,1.6c-0.5,0-0.5-0.4-0.5-0.7c0-4.6,0-9.1,0-13.7
			c0-0.6,0.2-0.8,0.8-0.8c1.1,0,2.2,0.1,3.3,0c0.8,0,0.9,0.3,0.9,1c0,2.2,0,4.4,0,6.6c0.6,0,0.8-0.5,1-0.7c1.2-1.5,2.6-3,3.5-4.6
			c1.2-2,2.8-2.4,4.8-2.2c0.6,0.1,0.9,0.2,0.9,0.9c0,4.5,0,9,0,13.6c0,0.7-0.3,0.8-0.9,0.8c-1,0-2.1-0.1-3.1,0
			c-0.7,0-0.9-0.3-0.9-0.9c0-2.2,0-4.4,0-6.6C643.7,601.9,643.6,601.8,643.5,601.8z"/>
		<path class="st5" d="M666.3,602c0,2.1,0,4.3,0,6.4c0,0.8-0.1,1.3-1.1,1.2c-1.3-0.2-3,0.6-3.8-0.3c-0.6-0.7-0.2-2.4-0.2-3.7
			c0-2.1,0-4.3,0-6.4c0-0.8-0.2-1-1-1c-3.3-0.1-3.3-0.2-3.3,3.2c0,1.8,0,3.5-0.5,5.2c-0.7,2.3-3.2,3.6-5.5,3.1
			c-0.5-0.1-0.5-0.4-0.5-0.8c0-0.9,0-1.8,0-2.7c0-0.3-0.1-0.7,0.3-0.8c1.4-0.4,1.4-1.6,1.4-2.7c0-2.4,0-4.8,0-7.2
			c0-0.9,0.2-1.2,1.1-1.2c3.9,0.1,7.9,0.1,11.8,0c0.9,0,1.3,0.2,1.2,1.2C666.2,597.6,666.3,599.8,666.3,602z"/>
		<path class="st5" d="M692.9,594.3c2.2,0,4.3,0,6.5,0c0.7,0,0.9,0.2,0.9,0.9c0.1,3,0.1,3-2.8,3c-2.1,0-2.1,0-2.1,2
			c0,2.7,0,5.4,0,8.1c0,0.8-0.1,1.3-1.1,1.2c-1.3-0.1-3,0.5-3.8-0.2c-0.8-0.8-0.2-2.5-0.2-3.8c0-2-0.1-4,0-6
			c0.1-1.2-0.4-1.5-1.5-1.4c-0.2,0-0.5,0-0.7,0c-2.9,0-2.8,0-2.8-2.9c0-0.9,0.4-1,1.1-1C688.7,594.3,690.8,594.3,692.9,594.3z"/>
	</g>
</g>
<g>
	<path class="st6" d="M-2419.5,883.3c-0.3-0.3-0.5-0.5-0.8-0.8c0.5-6.8-0.2-13.5-1.9-20.1c-8.6-32.3-39.5-49.6-71.6-40.9
		c-13.8,3.7-24.9,11.5-32.6,23.9c-13.2-17.7-33.6-23.3-53.5-14.8c-2.4,1-4.2,1-6.6,0c-9.4-4.1-19-5.1-29.2-2.2
		c-21.4,6.1-33.1,25.2-30.3,49c0.3,2.2,0.3,2.6-1.8,3.7c-20.6,10-31.7,26.3-32.3,49.4c-0.1,3.2-0.8,4.4-4.2,4.2
		c-9.1-0.4-16.7,3.4-22.9,9.5c-13.6,13.4-13.9,35.2-0.5,48.8c8,8.1,18.1,12.4,29.9,9.5c7-1.7,12.9-1.9,15.5,6.4
		c0.1,0.4,0.7,0.7,1,1.1c15.2,17,40.2,20.5,59.5,8.3c1.6-1,2.3-1.3,4,0.1c17,14.3,36.5,20.9,58.9,19.3c15.8-1.1,29.6-6.3,42.4-15.3
		c2.5-1.7,4.2-5,6.9-5.5c3.3-0.6,3.6,4.2,6.2,5.6c1.1,0.6,2.1,1.6,3.1,2.5c14.5,11.7,36.2,12.7,51.3,3.6c12-7.2,19.8-17.5,21.9-31.6
		c0.5-3.3,2.1-4.2,5.3-3.3c11.4,3.2,22.8,2.7,34-1c10.6-3.4,19.6-9.2,26.5-17.8c4.4,4.9,9.1,8.8,15.2,10.9
		c8.8,3.1,17.5,2.6,26.1-0.4c2-0.7,3.2-1.1,4.7,0.8c4.9,6.3,11.1,8.6,19,6.4c7.1-1.9,13-9.4,12.9-17.1c-0.1-7.4-6.6-15.8-13.6-16.7
		c-3.1-0.4-3.3-1.6-3.3-4.1c0.4-15.6-7.3-26.1-21.3-32.1c-3.1-1.3-3.3-2.9-2.6-5.6c2.3-8.7-0.5-15.9-6.9-21.7
		c-6.2-5.7-14.3-8.2-21.8-4.5c-6.8,3.3-11.1,1.6-15.6-3c-0.3-0.4-0.7-0.7-1.1-1c-8.7-6.8-18.6-11-29.6-12
		C-2393.4,873.4-2407.1,875.7-2419.5,883.3z M-1434.8,166.3c5.5,13.8,13,25.6,24.6,34.7c12.3,9.7,26.1,15.1,41.5,16
		c20.3,1.2,38.7-4,54.1-18.1c2.2-2,4.6-3.8,6.6,0.8c0.9,2.1,3.3,3.7,5.1,5.4c15.8,15.8,44.3,16.2,60.3,0.6c2.9-2.8,4.1-2.2,6.6,0.2
		c11.4,11.2,25.5,17.4,41.2,19c16.3,1.7,32.1-0.8,46.7-9.4c14.6-8.6,25.1-20.5,31.7-35.9c3.1-7.3,5-15,5.4-23.4
		c11.8,12.3,28.2,9.3,35.9-1c6.3-8.4,6-24.6-7.2-32.9c11.6-10.1,16-23,14.9-38c-0.8-10.8-5.4-20-12.9-27.3
		c-8.5-8.3-19.1-12.6-31.3-11.8c-3.2,0.2-4.5-1-3.7-4c1.5-6.2,1-12.4,0-18.6c-2.3-15.3-10.1-27.3-22.3-36.4
		c-17.7-13.2-37.2-14.3-57.4-6.7c-2,0.7-2.8,0.6-3.9-1.2c-2.1-3.7-4.4-7.3-6.8-10.8c-10.5-15-24.1-26.6-40.5-34.5
		c-21.5-10.4-44-14-67.9-9.9c-23.1,4-42.9,14.1-59.6,30.2c-11.7,11.3-20.5,24.9-26,40.6c-1.7-1.3-3.2-2.6-4.9-3.7
		c-13.1-8.8-27.5-12.6-43.4-12.1c-17.8,0.6-33,7.1-45.7,19.1c-14.8,14-21.9,31.6-21.7,52.1c0,6.9,0,6.8-6.8,6.9
		c-27.7,0.6-46.9,23.4-41.7,52.1c4.5,24.5,27.9,38.6,52.3,33.4c3-0.7,4.2-0.2,4.8,2.6c2.2,9.3,7.7,16.7,14.9,22.8
		c9.1,7.7,20,10.7,31.6,9.8C-1451,176.2-1442.2,172.8-1434.8,166.3z M-1083.1,567.3c0.5-0.1,0.9-0.4,1.4-0.4
		c19.3-0.6,36.4-17.5,35.4-37.9c-0.7-14.5-6.8-25.3-19.2-32c-11.8-6.3-24.2-6.4-36.2,0.5c-2.7,1.6-4,0.9-4.7-2
		c-6.6-28.3-34.9-52.1-65.4-51.6c-2.2,0-3.2-0.2-3.8-3c-5.6-27.2-18.5-50.2-40.7-67.1c-27-20.7-57.7-28.3-91-21.5
		c-34.9,7.1-61,27.1-77.6,58.8c-4.7,9-7.9,18.8-10.1,29.4c-3.1-2.8-5.5-5.4-8.2-7.4c-14.2-10.9-30.2-16.1-48.3-15.1
		c-16.4,0.9-30.7,6.8-42.8,17.6c-14.9,13.4-22.9,30.2-23,50.5c0,2.7-1.2,2.1-2.8,2c-8.3-0.6-16.8-1.2-24.8,1.3
		c-30.5,9.6-45.2,34.6-39.9,64.5c7,39.3,48.7,56.8,82.1,39c3.6-1.9,4.3-1.6,5.6,2.3c7.1,21.7,21.2,37.1,42.3,45.8
		c13.8,5.7,28.1,7,42.8,3.9c15.1-3.2,28-10.1,38.5-21.5c1.7-1.8,2.8-2.9,4.8-0.2c17.9,22.5,41.1,31.8,69.7,27.7
		c25.3-3.6,42.8-17.9,54.7-39.8c1.5-2.8,2.4-2.5,4.7-1.3c10.7,5.6,22.3,7.6,34,5.8c16.2-2.5,29.5-10.4,38.6-24.5
		c16,27.4,41.4,29.8,60.3,20.6C-1089.1,603.2-1080.7,584.7-1083.1,567.3z M-1745.8,436c-5.2-11-11.6-20.4-20.7-27.8
		c-13.6-11.1-28.9-17.3-46.3-18.1c-11.5-0.6-22.6,1.1-33.2,5.9c-2.7,1.2-4.8,1.1-6.8-1.9c-4-5.9-9.3-10.7-14.9-15.1
		c-20.5-16.2-43.4-23.6-69.6-21c-14.5,1.4-27.9,5.2-40.3,12.9c-1.9,1.2-3.4,1.4-5.7-0.2c-18.4-12.9-38.6-16.8-60.3-10.4
		c-22.1,6.5-37.3,20.7-45.5,42.2c-3.8,9.9-4.4,20.2-4,30.6c0.1,2.3,0.5,4.6-3.1,5.1c-7,0.9-13.2,3.8-18.6,8.3
		c-2.2,1.8-3.1,1.2-4.8-0.3c-9.2-7.8-19.9-11.2-31.6-8.3c-21.3,5.2-31.2,19.8-28.8,41.7c1.9,16.8,15.7,28.7,32,30.3
		c3.9,0.4,4.8,2,3.9,4.8c-1.1,3.2-0.1,6.1,0.1,9.1c1.1,15.8,16.4,29.9,32.2,30.2c6.8,0.1,13.2-1.1,19.8-3.6
		c-0.2,3.6,0.5,6.7,0.9,9.8c2.5,17.5,11.1,31.7,24.7,42.4c15.9,12.6,34.2,16.6,54.3,13.4c16.6-2.6,29.6-11.1,40.6-23.2
		c1.2-1.3,1.7-3.9,3.6-3.5c1.4,0.3,1.4,3,2,4.6c7.3,19.7,20.1,34.7,39,43.8c15.7,7.6,32.4,9.9,49.8,6.2
		c25.7-5.5,43.4-20.8,54.9-43.8c1.5-3,1.6-3.4,4.6-1.6c18.1,10.6,37.2,12.1,56.2,3.3c18.5-8.5,29.5-23.5,32.4-43.9
		c0.5-3.2,1.4-4.9,5.5-5.1c12.1-0.6,23-5,31.8-13.6c10.4-10.2,15.7-22.6,14.7-37.3c-0.3-4.2,1-6.5,5.2-6.8
		c12.5-0.9,23.5-15,23.2-28.1c-0.5-21.6-20-33.2-39.5-26.2c-3.3,1.2-3.9,0.3-4.9-2.5c-3.4-9.7-14.5-16.9-24.8-17.3
		C-1730.4,420.4-1738.9,426.2-1745.8,436z M-1140.7,957.8c8.3,2.2,17.6,2.8,25.3,0.7c29.6-8.1,45.1-35.6,37.1-64
		c-7.6-27.1-34-42.1-61.2-35.5c-4.1,1-3.9-0.4-4-3.3c-0.6-20-8.4-36.5-24.4-48.9c-14.5-11.3-31.2-14.2-48.7-11.7
		c-12.7,1.8-24,7.7-33,17.3c-1.9,2-2.6,2.2-4.4-0.5c-5.5-7.8-11.8-15.1-19.6-20.7c-22.3-16-47-22.8-74.4-17.5
		c-32.5,6.3-55.1,25.1-68.6,54.9c-1.8,4-3.8,3.8-6.5,2.7c-4-1.6-8.3-2.2-12.5-2.5c-14.3-1-27.7,1.9-40.1,9.5
		c-11.3,7-19.6,16.5-25,28.8c-4.2,9.5-5.9,19.4-5.7,29.7c0,2.1,0.2,4.1-2.9,3.8c-8.3-0.6-15.5,2.7-22.3,6.7
		c-13.6,8-21.7,20.2-23.6,35.7c-2.3,18,3.3,33.5,17.3,45.6c9.4,8.1,20.7,11.8,32.6,11.6c11.8-0.2,23.2-3.5,32.3-12.3
		c1.9,36.7,19.9,61.3,55,69.8c31.1,7.5,57.2-3.7,76-29.6c33.7,51,79.2,70.3,137.6,48.3C-1163.9,1061.2-1132,1018.5-1140.7,957.8z
		 M-1841.9-405.7c-0.5-2.2-0.9-4.2-1.4-6.2c-5.1-23.7-16.7-43.3-36.5-57.6c-19.5-14.1-41-20.5-65.2-18c-11.3,1.2-22,3.8-32,8.6
		c-15.1,7.3-27.4,18-37.1,31.8c-1,1.5-1.5,3.3-4.5,2.1c-17.7-7.1-35-6-51.3,4c-16.5,10.1-24.7,25.3-26.2,44.3
		c-0.8,9.7,1.8,18.8,5.7,28.2c-2.8,0-5,0-7.3,0c-14.8-0.3-28.6,4.1-40.2,12.7c-23.6,17.5-35.1,41-31.3,71
		c2.4,18.7,10.6,34,24.7,46.5c14.7,13,32,18.6,51,18.6c109.6,0.2,219.3,0.2,328.9,0c17.6,0,35.2,1.1,52.8-0.9
		c16.2-1.8,29.5-9.2,39.4-21.8c10.1-12.8,14.3-27.6,12.3-44.1c-1.5-12.7-6.4-23.6-14.7-33c-7.3-8.3-16.4-14-27.2-17
		c-2.3-0.6-2.7-1.1-1.6-3.7c2.9-6.9,4.2-14,3.5-21.8c-1.9-20.4-17.9-34.2-37.7-35.3c-8.7-0.5-16.8,2.2-24.1,7.1
		c-2.2,1.5-3.4,2.2-5.8-0.8c-11.4-14.2-26.1-22.3-44.7-22.4C-1823-413.5-1832.5-410.4-1841.9-405.7z M-2670.1-341.8
		c-18.9,1.1-33.9,8.6-45.6,23.3c-18.2,22.9-16.7,58.4,4,79.9c12.6,13,28.3,19,46.1,19c106.3,0.1,212.6,0.1,318.8,0
		c15.6,0,31.2,0.9,46.8-0.8c12.7-1.4,23.7-6.4,32.1-15.4c11.5-12.2,16.7-26.8,14.8-44c-2.8-24.2-20.9-43.4-45.2-46.8
		c-3.6-0.5-7.9,0.5-10.6-1.3c-3.2-2.1-0.5-6.8-1.4-10.2c-0.4-1.8-0.7-3.5-1-5.3c-3.1-17.7-11.6-32.8-24.6-45
		c-12-11.4-26.6-18.3-43-21c-1.6-0.3-2.3-0.7-2.3-2.4c-0.6-12.2-11.7-16.9-20.9-15.4c-2.4,0.4-3.1-0.1-4-1.8
		c-7.7-14-18-25.7-30.6-35.5c-20-15.4-42.9-23.1-68-23.8c-16-0.4-31.7,2.7-46.5,9c-17.9,7.6-32.9,19.2-45.1,34.4
		c-8.8,11-15.4,23.1-19.7,36.5c-0.6,1.8-1.3,3.4-3.3,2.7c-4.2-1.5-8.6-0.6-12.8-0.8c-21.2-0.7-42,19.6-42.1,41.8
		C-2674.3-356.7-2673-349.3-2670.1-341.8z M-2545.6-6.8c-4.6-4.7-9.3-8.5-14.9-11c-23.1-10.5-52.8-5.2-68.6,16.5
		c-8.9,12.3-12.4,26-10.5,40.9c0.5,3.8-0.1,4.8-3.5,5.7c-20,5.1-36.3,16.1-48.2,32.8c-15.8,22.2-19.8,46.9-12.6,73.1
		c5.2,19.2,16.4,34.6,32.6,46.1c11.8,8.4,25,14.6,39.5,14.6c107.4,0.4,214.9,0.3,322.3,0.1c10.6,0,19.3-5.5,25.9-13.4
		c6.8-8.1,9.6-17.7,9.7-28.7c0.1-15.2-12.8-32.5-26-36.1c-3.7-1-4.3-2.5-3.2-6.2c6.1-19.5,3.7-38.1-7.5-55.1
		c-12.8-19.5-31.1-29.6-54.8-29.3c-5.1,0.1-10.2-0.4-15.3,1.2c13.1-51.9-19.8-104.4-75.4-109.7C-2490.1-68.5-2531.4-49.3-2545.6-6.8
		z M-2313.9,482c0-1-0.1-1.4,0-1.8c4.2-14,4.6-28.2,1.1-42.2c-7-28.1-23.9-48-50.9-59.1c-15.5-6.4-31.6-7.3-48-4.5
		c-10.1,1.7-19.3,6.2-28.2,11.1c-1.5,0.8-2.7,1.6-3.4-0.2c-1.2-2.8-3.9-3.9-5.9-5.8c-15.6-14.2-34.5-18.8-54.6-16.1
		c-23.1,3-40.3,15.9-51.2,36.6c-1.3,2.5-2.2,2.7-4.6,1.4c-12.1-6.3-25.4-7.9-38.5-6c-16.6,2.4-30.9,9.8-42.1,23.1
		c-11.7,14-16.7,30.1-15.6,47.9c0.4,6-1.1,4.3-4.4,3.2c-18.6-6-35.6-2.2-49,11.4c-13.1,13.2-17.1,29.9-11.4,48.1
		c8.2,26.2,37.8,39.6,63.8,29.1c1.8-0.7,2.8-2,3.8,1.5c9.2,33.7,37.1,55.6,70,59c18.8,2,36.7-2,52.6-12.9c2.4-1.7,3.9-1.3,5.5,0.9
		c3.6,5.1,7.7,9.6,12.5,13.8c14.7,12.7,31.9,18.5,50.9,19.3c11.1,0.5,22-1.8,32.2-6.1c12.3-5.1,22.9-12.7,31.3-23.3
		c7.9-10,13.7-20.9,16.3-33.8c1.7,1.1,3,1.8,4.2,2.6c6.5,4,13.6,6.8,21.3,6.7c16.8-0.2,29.9-7.4,37.2-22.9c2.4-5.1,4.1-7.6,9.7-4.2
		c1.8,1.1,4.4,1,6.7,1.2c20.3,1.6,39.7-11.4,43.5-33c3.1-17.3-5-35.1-20.6-43C-2290.7,478.3-2302,477.2-2313.9,482z M-1971.6,182.6
		c1.8,12.9,7.3,23.1,16.7,31.7c13.5,12.4,38.5,14.1,53.5,5.6c9.6-5.4,16.5-12.9,21.1-22.7c0.7-1.4,0.6-4,3.9-1.8
		c17.5,11.9,36.8,15.7,57.5,11.7c17.3-3.4,31.8-11.7,42.9-25.7c8.5-10.7,14.3-22.5,16.1-36c1.7-0.1,2.3,1.1,3.1,1.9
		c8.1,7.5,17.5,8.8,27.5,5.2c9.9-3.5,15.9-12.5,15.8-23.2c0-3.2,0.9-3.4,3.7-3.2c12.8,0.9,21.6-5.8,26.1-14.8
		c5.2-10.4,2.5-23.3-6.4-31.1c-9-7.8-19.4-7.6-30-3.6c-0.5-1.9-0.9-3.8-1.4-5.7c-5.3-20.5-28-36-48.9-31.8c-2.9,0.6-5.3,0.3-6.2-3.6
		c-0.9-4.1-3.5-7.5-6.6-10.1c-10.2-8.8-21.5-10.3-33.6-4.3c-2,1-2.4,0.1-3.1-1.6c-4.4-11.2-10.8-21-20.9-28
		c-12.6-8.7-26.3-13.6-42.1-11.4c-2.4,0.3-5.7,1.7-7.3-2.1c-6-14-15.2-25.6-27.1-35.1c-24.6-19.5-52.7-25.3-82.6-18.4
		c-33,7.6-55.6,28.3-68.1,59.9c-4.2,10.5-5.7,21.6-6.2,32.7c-0.3,7.2,1.2,14.6,2,22.2c-10.6-5.7-21.5-8-33.3-6.1
		c-13.5,2.1-24.3,8.6-32.8,19.1c-9.1,11.3-11.5,24.7-9.9,38.6c1.5,12.8,7.5,23.4,17.6,31.7c11.2,9.2,23.9,12.7,38.1,11.5
		c3.9-0.3,4.6,1.4,4.1,4.6c-2.8,16,14.5,26.7,26.9,20.8c4.1-2,5-0.5,6.8,2.7c10.9,19.1,27.9,28.7,49.6,29.8
		C-1993.1,192.7-1982.1,188.9-1971.6,182.6z M-1143.4-322c-0.6-6.4-0.1-12.7-0.9-19.2c-2.9-24.3-15.6-42.3-35.4-55.4
		c-4.8-3.2-4.8-5.1-3.4-9.9c6.4-21.7,2.2-41.5-13.3-58c-12.1-12.8-27.4-18.7-45.3-17.9c-20.9,1-36.7,10.3-47.6,27.8
		c-2.5,4.1-4.1,4.1-7.5,1.5c-11.1-8.5-23.5-10.6-37.1-7.6c-15.4,3.4-25.5,12.9-31.5,27.1c-1.3,3-2.7,3.9-5.6,3.2
		c-9.2-2-18.5-1.4-27.6,0.2c-23.1,4.2-42.1,15.6-56.1,34.5c-15.8,21.1-20.7,44.9-16.1,71.3c-14.6-1.2-27.5,2.3-37.2,13.9
		c-9.6,11.5-10.2,24.9-7.1,38.8c-0.7,0.1-1,0.2-1.4,0.2c-13.5,0.8-23.8,10.4-23,25.3c0.6,10.7,9.9,20.9,24.1,20.9
		c133.1-0.2,266.2-0.2,399.3,0c9.3,0,16-3.9,20.5-11.4c5.2-8.8,3.9-17.8-1.9-25.8c-1.6-2.3-1.5-3.6-0.6-5.9
		c3.2-8.2,3.8-16.8,1.6-25.2C-1101.9-316-1121-325.6-1143.4-322z M-2099.2,910.6c-2.4,0-4.3-0.1-6.3,0c-8.9,0.7-16.8,4.1-22.6,10.6
		c-8.6,9.5-12.1,20.9-9.1,33.7c1.8,7.5,5.5,13.7,11.3,18.9c8.7,7.8,18.9,9.5,29.9,8.7c2-0.2,2.5,0,2.8,2.2
		c2,12.8,8.6,22.9,18.7,30.8c11,8.6,23.8,10.2,37,8.8c8.3-0.9,16.3-3.9,22.6-9.9c3.5-3.2,5.3-7.2,10.7-1.2
		c8.1,9,19.2,12.3,31.4,11.2c2.4-0.2,3.2,0.7,3.7,3.2c2,9.3,6.3,17.6,12.4,24.8c14,16.6,31.8,24.8,53.8,24.1
		c17.4-0.6,32.1-7.2,43.9-19.3c9.7-9.8,16.1-21.9,17.7-36c0.3-2.7,1.1-4.4,4.9-3.1c5.4,1.9,11.2,2.2,17,2.4
		c25.6,1,50-18.9,55.2-43.3c1.1-5,1.4-10.1,2.4-15.9c9.6,14.5,23,18.7,38.7,17c8.5-0.9,15.7-5.2,21.3-11.3
		c7.6-8.4,10.3-18.5,9.7-30.2c-0.8-15.9-17.2-33.5-33.8-33.3c-3,0-3.8-1.1-3.5-3.8c0.1-1.5,0-3,0-4.5c-0.1-25.2-19.9-43.9-44.5-44.6
		c-9.3-0.3-18.2,2-26,7.7c-1.6,1.1-3.8,2.9-4.5-1.2c-4.1-22.2-14.9-40.2-32.4-54.6c-22.9-18.9-49.4-24.9-77.8-19.5
		c-29.7,5.6-51.9,22.7-65.5,50.1c-1.2,2.4-2.4,3.1-5,3.6c-12.2,2.4-23.6,6.8-32.8,15.7c-1.2,1.1-2.7,3-5.1,1
		c-9.3-7.7-20.2-9.9-32.1-10.1c-19.5-0.4-38.3,14.7-44.3,32C-2103.4,887.1-2103.2,898.6-2099.2,910.6z"/>
	<path class="st7" d="M-1434.8,166.3c-7.4,6.5-16.1,10-25.5,10.6c-11.6,0.8-22.5-2.1-31.6-9.8c-7.2-6.1-12.6-13.4-14.9-22.8
		c-0.7-2.8-1.8-3.3-4.8-2.6c-24.4,5.3-47.9-8.9-52.3-33.4c-5.2-28.7,14-51.5,41.7-52.1c6.8-0.2,6.9,0,6.8-6.9
		c-0.1-20.4,6.9-38.1,21.7-52.1c12.7-12,27.9-18.5,45.7-19.1c15.9-0.5,30.2,3.3,43.4,12.1c1.6,1.1,3.1,2.4,4.9,3.7
		c5.5-15.6,14.3-29.2,26-40.6c16.6-16.1,36.4-26.2,59.6-30.2c23.9-4.1,46.5-0.4,67.9,9.9c16.4,7.9,30,19.5,40.5,34.5
		c2.4,3.5,4.7,7.1,6.8,10.8c1.1,1.9,1.9,2,3.9,1.2c20.3-7.6,39.7-6.5,57.4,6.7c12.2,9.1,19.9,21.1,22.3,36.4c1,6.3,1.5,12.4,0,18.6
		c-0.7,2.9,0.6,4.2,3.7,4c12.2-0.8,22.8,3.5,31.3,11.8c7.5,7.3,12.2,16.5,12.9,27.3c1.1,15-3.3,27.9-14.9,38
		c13.2,8.2,13.5,24.5,7.2,32.9c-7.8,10.3-24.1,13.4-35.9,1c-0.4,8.4-2.3,16.1-5.4,23.4c-6.6,15.4-17.1,27.3-31.7,35.9
		c-14.6,8.6-30.4,11.1-46.7,9.4c-15.6-1.6-29.7-7.8-41.2-19c-2.5-2.4-3.7-3-6.6-0.2c-16,15.7-44.4,15.3-60.3-0.6
		c-1.8-1.8-4.2-3.3-5.1-5.4c-2-4.5-4.4-2.8-6.6-0.8c-15.4,14-33.9,19.2-54.1,18.1c-15.4-0.9-29.2-6.4-41.5-16
		C-1421.9,191.8-1429.4,180-1434.8,166.3z"/>
	<path class="st7" d="M-1083.1,567.3c2.5,17.4-6,35.8-23.5,44.4c-18.9,9.2-44.4,6.8-60.3-20.6c-9.1,14.1-22.5,22-38.6,24.5
		c-11.7,1.8-23.3-0.2-34-5.8c-2.3-1.2-3.1-1.5-4.7,1.3c-11.9,21.8-29.5,36.2-54.7,39.8c-28.5,4.1-51.8-5.2-69.7-27.7
		c-2.1-2.6-3.2-1.6-4.8,0.2c-10.5,11.4-23.4,18.3-38.5,21.5c-14.7,3.2-29,1.9-42.8-3.9c-21.1-8.8-35.3-24.2-42.3-45.8
		c-1.3-4-2.1-4.2-5.6-2.3c-33.4,17.8-75.1,0.3-82.1-39c-5.3-29.9,9.4-54.9,39.9-64.5c8-2.5,16.5-2,24.8-1.3c1.7,0.1,2.8,0.7,2.8-2
		c0.1-20.2,8.1-37.1,23-50.5c12-10.8,26.3-16.8,42.8-17.6c18.1-1,34,4.3,48.3,15.1c2.7,2.1,5.1,4.6,8.2,7.4
		c2.2-10.6,5.3-20.3,10.1-29.4c16.6-31.7,42.7-51.7,77.6-58.8c33.3-6.8,64,0.8,91,21.5c22.2,17,35.1,40,40.7,67.1
		c0.6,2.8,1.6,3,3.8,3c30.5-0.5,58.8,23.4,65.4,51.6c0.7,2.9,2,3.5,4.7,2c11.9-6.9,24.4-6.8,36.2-0.5c12.4,6.6,18.6,17.5,19.2,32
		c1,20.4-16.1,37.3-35.4,37.9C-1082.2,566.9-1082.7,567.2-1083.1,567.3z"/>
	<path class="st7" d="M-1140.7,957.8c8.7,60.7-23.2,103.5-63.7,118.7c-58.4,22-103.9,2.7-137.6-48.3c-18.8,25.9-44.9,37.1-76,29.6
		c-35.2-8.5-53.1-33.1-55-69.8c-9.1,8.8-20.5,12.1-32.3,12.3c-11.9,0.2-23.2-3.5-32.6-11.6c-14-12.1-19.6-27.6-17.3-45.6
		c1.9-15.5,10-27.6,23.6-35.7c6.8-4,14-7.3,22.3-6.7c3.2,0.2,3-1.8,2.9-3.8c-0.1-10.3,1.5-20.2,5.7-29.7c5.4-12.3,13.7-21.8,25-28.8
		c12.3-7.6,25.8-10.5,40.1-9.5c4.2,0.3,8.4,0.8,12.5,2.5c2.7,1.1,4.7,1.3,6.5-2.7c13.5-29.8,36.2-48.6,68.6-54.9
		c27.4-5.3,52,1.5,74.4,17.5c7.8,5.6,14.1,12.9,19.6,20.7c1.9,2.6,2.6,2.5,4.4,0.5c8.9-9.6,20.3-15.5,33-17.3
		c17.5-2.5,34.2,0.4,48.7,11.7c15.9,12.4,23.8,28.9,24.4,48.9c0.1,2.9-0.1,4.3,4,3.3c27.2-6.6,53.6,8.4,61.2,35.5
		c8,28.4-7.5,55.9-37.1,64C-1123.1,960.5-1132.4,959.9-1140.7,957.8z"/>
	<path class="st7" d="M-2670.1-341.8c-2.9-7.4-4.2-14.8-4.2-22.7c0.1-22.2,20.9-42.5,42.1-41.8c4.3,0.1,8.6-0.8,12.8,0.8
		c2,0.7,2.7-0.9,3.3-2.7c4.3-13.4,10.9-25.5,19.7-36.5c12.2-15.2,27.2-26.8,45.1-34.4c14.8-6.3,30.5-9.4,46.5-9
		c25.1,0.6,47.9,8.4,68,23.8c12.6,9.7,23,21.5,30.6,35.5c0.9,1.7,1.6,2.2,4,1.8c9.2-1.5,20.3,3.2,20.9,15.4c0.1,1.7,0.7,2.1,2.3,2.4
		c16.4,2.7,31,9.7,43,21c12.9,12.2,21.4,27.2,24.6,45c0.3,1.8,0.6,3.5,1,5.3c0.9,3.4-1.8,8.1,1.4,10.2c2.7,1.8,7,0.7,10.6,1.3
		c24.3,3.5,42.4,22.6,45.2,46.8c2,17.2-3.3,31.9-14.8,44c-8.5,9-19.5,14-32.1,15.4c-15.6,1.7-31.2,0.8-46.8,0.8
		c-106.3,0.1-212.6,0.1-318.8,0c-17.8,0-33.5-5.9-46.1-19c-20.7-21.5-22.2-57-4-79.9C-2704-333.2-2689-340.7-2670.1-341.8z"/>
	<path class="st7" d="M-2545.6-6.8c14.2-42.5,55.5-61.7,89.4-58.5c55.6,5.3,88.5,57.8,75.4,109.7c5.2-1.6,10.3-1.1,15.3-1.2
		c23.7-0.3,42,9.9,54.8,29.3c11.2,17,13.5,35.6,7.5,55.1c-1.1,3.7-0.6,5.2,3.2,6.2c13.2,3.5,26.1,20.8,26,36.1
		c-0.1,11-2.8,20.6-9.7,28.7c-6.6,7.9-15.3,13.3-25.9,13.4c-107.4,0.1-214.9,0.3-322.3-0.1c-14.5,0-27.7-6.3-39.5-14.6
		c-16.2-11.5-27.4-26.9-32.6-46.1c-7.2-26.2-3.2-50.9,12.6-73.1c11.9-16.8,28.2-27.7,48.2-32.8c3.4-0.9,4-1.8,3.5-5.7
		c-1.9-14.9,1.6-28.6,10.5-40.9c15.8-21.8,45.5-27,68.6-16.5C-2555-15.2-2550.2-11.5-2545.6-6.8z"/>
	<path class="st7" d="M-2313.9,482c11.9-4.8,23.2-3.8,34.3,1.8c15.6,7.8,23.7,25.7,20.6,43c-3.9,21.6-23.3,34.6-43.5,33
		c-2.3-0.2-4.9-0.1-6.7-1.2c-5.6-3.3-7.3-0.8-9.7,4.2c-7.3,15.5-20.4,22.6-37.2,22.9c-7.7,0.1-14.8-2.6-21.3-6.7
		c-1.2-0.8-2.5-1.5-4.2-2.6c-2.6,12.9-8.5,23.8-16.3,33.8c-8.4,10.6-19,18.2-31.3,23.3c-10.2,4.2-21.1,6.5-32.2,6.1
		c-19-0.8-36.2-6.6-50.9-19.3c-4.8-4.2-8.9-8.7-12.5-13.8c-1.6-2.2-3-2.5-5.5-0.9c-15.9,10.8-33.8,14.8-52.6,12.9
		c-32.9-3.4-60.8-25.3-70-59c-1-3.5-2-2.3-3.8-1.5c-26,10.6-55.6-2.9-63.8-29.1c-5.7-18.2-1.7-34.9,11.4-48.1
		c13.4-13.6,30.4-17.4,49-11.4c3.3,1.1,4.7,2.8,4.4-3.2c-1.1-17.7,3.9-33.9,15.6-47.9c11.1-13.3,25.5-20.7,42.1-23.1
		c13.1-1.9,26.4-0.3,38.5,6c2.4,1.3,3.2,1.1,4.6-1.4c11-20.7,28.1-33.6,51.2-36.6c20.1-2.6,39,2,54.6,16.1c2,1.8,4.7,3,5.9,5.8
		c0.8,1.8,1.9,1,3.4,0.2c8.9-4.9,18.1-9.4,28.2-11.1c16.3-2.8,32.5-1.9,48,4.5c27,11.1,43.9,31,50.9,59.1
		c3.5,14.1,3.1,28.2-1.1,42.2C-2314,480.6-2313.9,481.1-2313.9,482z"/>
	<path class="st7" d="M-1971.6,182.6c-10.5,6.4-21.5,10.1-33.5,9.5c-21.7-1.1-38.6-10.7-49.6-29.8c-1.8-3.2-2.7-4.6-6.8-2.7
		c-12.4,5.9-29.6-4.9-26.9-20.8c0.6-3.2-0.2-5-4.1-4.6c-14.2,1.2-27-2.3-38.1-11.5c-10.1-8.4-16.1-19-17.6-31.7
		c-1.6-14,0.7-27.3,9.9-38.6c8.5-10.5,19.2-17,32.8-19.1c11.9-1.9,22.7,0.4,33.3,6.1c-0.7-7.6-2.3-14.9-2-22.2
		c0.5-11.1,2-22.2,6.2-32.7c12.6-31.5,35.2-52.3,68.1-59.9c30-6.9,58-1.1,82.6,18.4c12,9.5,21.1,21,27.1,35.1
		c1.6,3.8,4.9,2.5,7.3,2.1c15.7-2.3,29.4,2.7,42.1,11.4c10.1,6.9,16.5,16.7,20.9,28c0.7,1.7,1.1,2.6,3.1,1.6
		c12.1-6,23.4-4.4,33.6,4.3c3.1,2.7,5.7,6.1,6.6,10.1c0.9,3.9,3.2,4.2,6.2,3.6c20.9-4.2,43.6,11.3,48.9,31.8
		c0.5,1.9,0.9,3.8,1.4,5.7c10.6-4,21-4.2,30,3.6c8.9,7.7,11.6,20.7,6.4,31.1c-4.5,9-13.3,15.7-26.1,14.8c-2.8-0.2-3.8-0.1-3.7,3.2
		c0,10.8-5.9,19.7-15.8,23.2c-10,3.5-19.4,2.3-27.5-5.2c-0.8-0.8-1.4-1.9-3.1-1.9c-1.8,13.5-7.6,25.3-16.1,36
		c-11.1,14-25.6,22.3-42.9,25.7c-20.7,4-40,0.2-57.5-11.7c-3.3-2.2-3.2,0.3-3.9,1.8c-4.6,9.8-11.5,17.3-21.1,22.7
		c-15,8.5-40,6.8-53.5-5.6C-1964.3,205.7-1969.8,195.5-1971.6,182.6z"/>
	<path class="st7" d="M-1190.2-586.1c22.4-3.6,41.5,5.9,47.1,28.1c2.1,8.4,1.6,17-1.6,25.2c-0.9,2.4-1.1,3.6,0.6,5.9
		c5.8,8.1,7.1,17.1,1.9,25.8c-4.4,7.5-11.2,11.4-20.5,11.4c-133.1-0.1-266.2-0.2-399.3,0c-14.1,0-23.5-10.1-24.1-20.9
		c-0.8-14.9,9.5-24.5,23-25.3c0.3,0,0.7-0.1,1.4-0.2c-3.1-13.9-2.4-27.2,7.1-38.8c9.7-11.7,22.6-15.1,37.2-13.9
		c-4.6-26.4,0.3-50.1,16.1-71.3c14.1-18.9,33.1-30.3,56.1-34.5c9-1.6,18.4-2.3,27.6-0.2c2.9,0.6,4.3-0.2,5.6-3.2
		c6-14.1,16.1-23.7,31.5-27.1c13.5-3,26-0.8,37.1,7.6c3.4,2.6,4.9,2.6,7.5-1.5c10.9-17.5,26.6-26.9,47.6-27.8
		c17.9-0.8,33.2,5,45.3,17.9c15.5,16.5,19.7,36.3,13.3,58c-1.4,4.8-1.4,6.7,3.4,9.9c19.8,13.1,32.4,31.1,35.4,55.4
		C-1190.3-598.9-1190.7-592.5-1190.2-586.1z"/>
	<path class="st7" d="M-2099.2,910.6c-4-12-4.2-23.5-0.1-35.2c6-17.3,24.8-32.4,44.3-32c12,0.3,22.8,2.4,32.1,10.1
		c2.4,2,3.9,0.1,5.1-1c9.2-8.9,20.5-13.3,32.8-15.7c2.6-0.5,3.9-1.2,5-3.6c13.6-27.4,35.8-44.5,65.5-50.1
		c28.4-5.4,54.8,0.6,77.8,19.5c17.5,14.4,28.3,32.4,32.4,54.6c0.8,4.1,2.9,2.3,4.5,1.2c7.8-5.6,16.7-7.9,26-7.7
		c24.6,0.8,44.5,19.4,44.5,44.6c0,1.5,0.1,3,0,4.5c-0.3,2.7,0.5,3.8,3.5,3.8c16.6-0.1,33,17.5,33.8,33.3c0.6,11.7-2.1,21.8-9.7,30.2
		c-5.5,6.1-12.8,10.4-21.3,11.3c-15.7,1.7-29-2.5-38.7-17c-1,5.8-1.3,10.9-2.4,15.9c-5.2,24.4-29.6,44.3-55.2,43.3
		c-5.8-0.2-11.6-0.5-17-2.4c-3.8-1.3-4.6,0.4-4.9,3.1c-1.6,14.1-8,26.2-17.7,36c-11.8,12-26.5,18.7-43.9,19.3
		c-22,0.7-39.8-7.5-53.8-24.1c-6.1-7.2-10.4-15.5-12.4-24.8c-0.5-2.5-1.3-3.4-3.7-3.2c-12.2,1.1-23.3-2.2-31.4-11.2
		c-5.4-6.1-7.3-2.1-10.7,1.2c-6.3,5.9-14.3,9-22.6,9.9c-13.2,1.4-26-0.2-37-8.8c-10.1-8-16.7-18-18.7-30.8c-0.3-2.2-0.8-2.4-2.8-2.2
		c-11,0.9-21.2-0.9-29.9-8.7c-5.9-5.2-9.5-11.5-11.3-18.9c-3.1-12.8,0.5-24.2,9.1-33.7c5.9-6.5,13.8-9.9,22.6-10.6
		C-2103.6,910.5-2101.6,910.6-2099.2,910.6z"/>
	<path class="st7" d="M-2419.5,883.3c12.4-7.6,26.1-9.9,40.3-8.6c11,1,20.9,5.2,29.6,12c0.4,0.3,0.7,0.7,1.1,1
		c4.5,4.6,8.8,6.3,15.6,3c7.6-3.7,15.6-1.1,21.8,4.5c6.3,5.8,9.2,13,6.9,21.7c-0.7,2.7-0.5,4.2,2.6,5.6c14,6,21.7,16.4,21.3,32.1
		c-0.1,2.4,0.2,3.6,3.3,4.1c7,0.9,13.5,9.4,13.6,16.7c0.1,7.7-5.8,15.2-12.9,17.1c-7.9,2.2-14.1-0.1-19-6.4
		c-1.5-1.9-2.7-1.5-4.7-0.8c-8.6,2.9-17.3,3.4-26.1,0.4c-6.1-2.1-10.7-5.9-15.2-10.9c-6.9,8.6-15.9,14.4-26.5,17.8
		c-11.2,3.7-22.6,4.2-34,1c-3.2-0.9-4.8,0-5.3,3.3c-2.2,14.1-9.9,24.4-21.9,31.6c-15.1,9.1-36.8,8.1-51.3-3.6
		c-1-0.8-1.9-1.8-3.1-2.5c-2.6-1.4-2.9-6.2-6.2-5.6c-2.6,0.5-4.4,3.7-6.9,5.5c-12.8,8.9-26.6,14.2-42.4,15.3
		c-22.5,1.6-41.9-5-58.9-19.3c-1.7-1.4-2.4-1.1-4-0.1c-19.3,12.2-44.3,8.7-59.5-8.3c-0.3-0.4-0.9-0.7-1-1.1c-2.7-8.3-8.6-8-15.5-6.4
		c-11.8,2.8-22-1.4-29.9-9.5c-13.3-13.6-13-35.3,0.5-48.8c6.2-6.2,13.9-9.9,22.9-9.5c3.4,0.1,4.1-1,4.2-4.2
		c0.5-23.1,11.7-39.4,32.3-49.4c2.1-1,2.1-1.5,1.8-3.7c-2.8-23.8,8.9-42.9,30.3-49c10.2-2.9,19.8-1.9,29.2,2.2c2.3,1,4.2,1,6.6,0
		c19.9-8.5,40.3-2.9,53.5,14.8c7.7-12.4,18.8-20.1,32.6-23.9c32.1-8.7,63,8.6,71.6,40.9c1.7,6.6,2.5,13.3,1.9,20.1
		c-0.7,0.3-1.1,1-0.6,1.5C-2420.3,884.7-2420,883.6-2419.5,883.3z"/>
	<path class="st6" d="M-2419.5,883.3c-0.5,0.3-0.7,1.3-1.4,0.7c-0.5-0.5-0.1-1.2,0.6-1.5C-2420,882.8-2419.8,883.1-2419.5,883.3z"/>
</g>
<g>
	<linearGradient id="SVGID_4_" gradientUnits="userSpaceOnUse" x1="652.6433" y1="-428.8771" x2="652.6433" y2="419.1712">
		<stop  offset="3.112701e-02" style="stop-color:#0C73FE"/>
		<stop  offset="0.7176" style="stop-color:#2581C4;stop-opacity:0"/>
	</linearGradient>
	<rect x="11.8" y="-749.4" class="st8" width="1281.8" height="721.8"/>
	<g>
		<g>
			
				<image style="overflow:visible;" width="120" height="120" xlink:href="A2E9A1B3.png"  transform="matrix(1 0 0 1 1097.0063 -712.1847)">
			</image>
		</g>
		<circle class="st9" cx="1157.9" cy="-651.7" r="23.6"/>
	</g>
	<path class="st7" d="M1142.1-387.2c2.2-3.2,5-5,8.9-4.9c3.3,0.1,6.9,2.5,8.1,5.6c0.3,0.9,0.5,1.2,1.6,0.8
		c6.3-2.3,12.6,1.5,12.8,8.5c0.1,4.2-3.5,8.8-7.5,9.1c-1.4,0.1-1.8,0.8-1.7,2.2c0.3,4.8-1.4,8.8-4.8,12.1c-2.8,2.8-6.4,4.2-10.3,4.4
		c-1.3,0.1-1.6,0.6-1.8,1.7c-0.9,6.6-4.5,11.5-10.5,14.2c-6.2,2.8-12.4,2.4-18.2-1.1c-1-0.6-1-0.4-1.5,0.5
		c-3.7,7.5-9.5,12.4-17.8,14.2c-5.6,1.2-11,0.5-16.1-2c-6.1-3-10.3-7.8-12.6-14.2c-0.2-0.5-0.2-1.4-0.6-1.5
		c-0.6-0.1-0.8,0.7-1.2,1.1c-3.6,3.9-7.8,6.7-13.2,7.5c-6.5,1-12.5-0.3-17.6-4.3c-4.4-3.5-7.2-8.1-8-13.8c-0.1-1-0.4-2-0.3-3.2
		c-2.1,0.8-4.2,1.2-6.4,1.2c-5.1-0.1-10.1-4.7-10.5-9.8c-0.1-1-0.4-1.9,0-3c0.3-0.9,0-1.4-1.3-1.6c-5.3-0.5-9.8-4.4-10.4-9.8
		c-0.8-7.1,2.4-11.8,9.3-13.5c3.8-0.9,7.3,0.2,10.3,2.7c0.6,0.5,0.9,0.7,1.6,0.1c1.7-1.5,3.8-2.4,6-2.7c1.2-0.1,1-0.9,1-1.6
		c-0.1-3.4,0.1-6.7,1.3-9.9c2.7-7,7.6-11.6,14.8-13.7c7-2.1,13.6-0.8,19.5,3.4c0.7,0.5,1.2,0.5,1.9,0.1c4-2.5,8.4-3.7,13.1-4.2
		c8.5-0.8,15.9,1.6,22.6,6.8c1.8,1.4,3.5,3,4.8,4.9c0.7,1,1.3,1,2.2,0.6c3.4-1.6,7-2.1,10.8-1.9c5.7,0.3,10.6,2.3,15,5.9
		C1138.3-393.8,1140.4-390.8,1142.1-387.2z"/>
	<path class="st7" d="M273.3-292.2c-7.8,4.7-16,7.5-24.9,7.1c-16.1-0.8-28.7-7.9-36.8-22.1c-1.3-2.4-2-3.4-5.1-2
		c-9.2,4.4-22-3.6-20-15.5c0.4-2.4-0.1-3.7-3-3.4c-10.5,0.9-20-1.7-28.3-8.5c-7.5-6.2-12-14.1-13.1-23.6
		c-1.2-10.4,0.6-20.3,7.3-28.7c6.3-7.8,14.3-12.6,24.3-14.2c8.8-1.4,16.9,0.3,24.8,4.6c-0.6-5.6-1.7-11.1-1.5-16.5
		c0.4-8.2,1.5-16.5,4.6-24.3c9.3-23.4,26.1-38.8,50.6-44.5c22.3-5.1,43.1-0.8,61.4,13.6c8.9,7,15.7,15.6,20.1,26
		c1.2,2.8,3.6,1.8,5.4,1.6c11.7-1.7,21.8,2,31.2,8.4c7.5,5.2,12.3,12.4,15.5,20.8c0.5,1.3,0.8,1.9,2.3,1.2c9-4.5,17.4-3.3,24.9,3.2
		c2.3,2,4.2,4.5,4.9,7.5c0.6,2.9,2.4,3.1,4.6,2.7c15.5-3.1,32.4,8.4,36.3,23.6c0.4,1.4,0.7,2.8,1,4.3c7.9-3,15.6-3.1,22.3,2.7
		c6.6,5.7,8.6,15.4,4.8,23.1c-3.3,6.7-9.9,11.7-19.4,11c-2.1-0.1-2.8-0.1-2.8,2.3c0,8-4.4,14.7-11.8,17.3
		c-7.4,2.6-14.4,1.7-20.4-3.9c-0.6-0.6-1-1.4-2.3-1.4c-1.3,10.1-5.7,18.8-12,26.7c-8.2,10.4-19,16.6-31.9,19.1
		c-15.4,3-29.7,0.2-42.7-8.7c-2.4-1.7-2.4,0.3-2.9,1.3c-3.4,7.3-8.6,12.8-15.7,16.9c-11.2,6.3-29.7,5.1-39.7-4.1
		C278.7-275.1,274.6-282.6,273.3-292.2z"/>
	<path class="st7" d="M972.7-266.4c3-1.8,6.3-2.4,9.7-2.1c2.6,0.2,5,1.3,7.1,2.9c0.1,0.1,0.2,0.2,0.3,0.2c1.1,1.1,2.1,1.5,3.7,0.7
		c1.8-0.9,3.7-0.3,5.2,1.1c1.5,1.4,2.2,3.1,1.7,5.2c-0.2,0.6-0.1,1,0.6,1.3c3.4,1.4,5.2,3.9,5.1,7.7c0,0.6,0,0.9,0.8,1
		c1.7,0.2,3.2,2.3,3.3,4c0,1.8-1.4,3.6-3.1,4.1c-1.9,0.5-3.4,0-4.6-1.5c-0.3-0.5-0.7-0.4-1.1-0.2c-2.1,0.7-4.1,0.8-6.3,0.1
		c-1.5-0.5-2.6-1.4-3.6-2.6c-1.6,2.1-3.8,3.5-6.4,4.3c-2.7,0.9-5.4,1-8.1,0.2c-0.8-0.2-1.1,0-1.3,0.8c-0.5,3.4-2.4,5.9-5.3,7.6
		c-3.6,2.2-8.8,1.9-12.3-0.9c-0.2-0.2-0.5-0.4-0.7-0.6c-0.6-0.3-0.7-1.5-1.5-1.3c-0.6,0.1-1.1,0.9-1.6,1.3
		c-3.1,2.1-6.4,3.4-10.2,3.7c-5.4,0.4-10-1.2-14.1-4.6c-0.4-0.3-0.6-0.3-1,0c-4.6,2.9-10.6,2.1-14.3-2c-0.1-0.1-0.2-0.2-0.2-0.3
		c-0.6-2-2.1-1.9-3.7-1.5c-2.8,0.7-5.3-0.3-7.2-2.3c-3.2-3.3-3.1-8.5,0.1-11.7c1.5-1.5,3.3-2.4,5.5-2.3c0.8,0,1-0.3,1-1
		c0.1-5.5,2.8-9.4,7.7-11.8c0.5-0.2,0.5-0.4,0.4-0.9c-0.7-5.7,2.1-10.3,7.3-11.7c2.4-0.7,4.7-0.5,7,0.5c0.6,0.2,1,0.2,1.6,0
		c4.8-2,9.7-0.7,12.8,3.6c1.8-3,4.5-4.8,7.8-5.7c7.7-2.1,15.1,2.1,17.2,9.8c0.4,1.6,0.6,3.2,0.5,4.8c-0.2,0.1-0.3,0.2-0.2,0.3
		C972.5-266.1,972.6-266.4,972.7-266.4z"/>
</g>
<g>
	<path class="st1" d="M4634.7-469.5c-27-12.3-68.1-6.9-92,25.7c-22.7,31-19.1,74,8.4,101.3c27.4,27.1,70.8,29.8,101.8,6
		c31.9-24.5,35.8-65.2,23.7-91.2c1.7,16.1-2.3,29-12.1,39.9c-10.1,11.1-22.9,16.7-37.8,16c-27.8-1.3-48.1-23.5-47.4-50.3
		C4579.9-445.9,4599.7-472.1,4634.7-469.5z M4787.6-470.4c-30.2,16.6-45.9,52-38.1,84.8c8.4,35.5,37.3,59.2,74.1,60.6
		c33.7,1.2,60.9-21.3,68.8-39.9c-34.4,15.9-68.6,6.8-89.1-14.1C4777.2-405.4,4773.6-436.3,4787.6-470.4z M4682.5-187
		c-13.9,38.4-46.5,47.9-68.3,45.5c-29.5-3.3-52.4-24.7-57.2-53.1c-2.8-16.2,0.3-31.5,9.1-45.4c8.8-13.9,21.4-23,38.5-28.1
		c-40.6,0.4-78,33.6-76.6,80.1c1.2,42.1,37.1,78.5,85.5,74.7C4650.2-116.3,4686.2-154.2,4682.5-187z M4799.2-265.1
		c-23.2,4.2-57.4,32.7-55.5,76.8c1.7,41.6,35.7,74.7,77.2,74.8c34.8,0.1,73.4-29.5,74.5-57c-14.8,32.9-47.6,47.8-78.4,43.2
		c-28.1-4.3-53.1-27.5-58.9-56.1C4752.1-211.9,4762.5-246.9,4799.2-265.1z"/>
	<path d="M4634.7-469.5c-35-2.6-54.8,23.6-55.4,47.3c-0.7,26.8,19.6,49,47.4,50.3c14.9,0.7,27.7-4.9,37.8-16
		c9.8-10.9,13.9-23.8,12.1-39.9c12.1,26.1,8.2,66.7-23.7,91.2c-30.9,23.8-74.3,21.1-101.8-6c-27.5-27.2-31.1-70.2-8.4-101.3
		C4566.6-476.4,4607.7-481.8,4634.7-469.5z"/>
	<path d="M4787.6-470.4c-14,34.1-10.4,65,15.6,91.4c20.5,20.8,54.8,30,89.1,14.1c-7.8,18.6-35,41.1-68.8,39.9
		c-36.8-1.3-65.7-25.1-74.1-60.6C4741.6-418.4,4757.4-453.7,4787.6-470.4z"/>
	<path d="M4682.5-187c3.7,32.8-32.3,70.8-69.1,73.7c-48.3,3.8-84.2-32.6-85.5-74.7c-1.4-46.5,36.1-79.7,76.6-80.1
		c-17,5.1-29.7,14.2-38.5,28.1c-8.8,13.9-11.8,29.2-9.1,45.4c4.8,28.4,27.8,49.7,57.2,53.1C4636-139.1,4668.6-148.7,4682.5-187z"/>
	<path d="M4799.2-265.1c-36.7,18.2-47.1,53.1-41.2,81.7c5.9,28.5,30.8,51.8,58.9,56.1c30.8,4.7,63.6-10.3,78.4-43.2
		c-1.1,27.6-39.7,57.1-74.5,57c-41.5-0.1-75.5-33.2-77.2-74.8C4741.8-232.3,4776-260.8,4799.2-265.1z"/>
</g>
</svg>
